<svg xmlns="http://www.w3.org/2000/svg" viewBox="0 0 1080 760" width="1080" height="760">
  <defs>
    <marker id="arrowA" markerWidth="10" markerHeight="7" refX="9" refY="3.5" orient="auto">
      <polygon points="0 0, 10 3.5, 0 7" fill="#7c3aed"/>
    </marker>
    <marker id="arrowB" markerWidth="10" markerHeight="7" refX="9" refY="3.5" orient="auto">
      <polygon points="0 0, 10 3.5, 0 7" fill="#10b981"/>
    </marker>
    <marker id="arrowC" markerWidth="10" markerHeight="7" refX="9" refY="3.5" orient="auto">
      <polygon points="0 0, 10 3.5, 0 7" fill="#2563eb"/>
    </marker>
    <marker id="arrowE" markerWidth="10" markerHeight="7" refX="9" refY="3.5" orient="auto">
      <polygon points="0 0, 10 3.5, 0 7" fill="#f97316"/>
    </marker>
    <marker id="arrowF" markerWidth="10" markerHeight="7" refX="9" refY="3.5" orient="auto">
      <polygon points="0 0, 10 3.5, 0 7" fill="#7c3aed"/>
    </marker>
    <marker id="arrowG" markerWidth="10" markerHeight="7" refX="9" refY="3.5" orient="auto">
      <polygon points="0 0, 10 3.5, 0 7" fill="#ef4444"/>
    </marker>
    <marker id="arrowH" markerWidth="10" markerHeight="7" refX="9" refY="3.5" orient="auto">
      <polygon points="0 0, 10 3.5, 0 7" fill="#6b7280"/>
    </marker>
    <filter id="shadowSoft" x="-20%" y="-20%" width="140%" height="160%">
      <feDropShadow dx="0" dy="3" stdDeviation="6" flood-color="#0f172a" flood-opacity="0.12"/>
    </filter>
    <filter id="shadowGlass" x="-20%" y="-20%" width="140%" height="160%">
      <feDropShadow dx="0" dy="10" stdDeviation="16" flood-color="#020617" flood-opacity="0.28"/>
    </filter>
    <style>
    text { font-family: 'Helvetica Neue', Helvetica, Arial, 'PingFang SC', 'Microsoft YaHei', sans-serif; }
    .title { font-size: 30px; font-weight: 700; fill: #111827; }
    .subtitle { font-size: 14px; font-weight: 500; fill: #6b7280; }
    .section { font-size: 13px; font-weight: 700; fill: #2563eb; letter-spacing: 1.4px; }
    .section-sub { font-size: 12px; font-weight: 500; fill: #94a3b8; }
    .node-title { font-size: 18px; font-weight: 700; fill: #111827; }
    .node-sub { font-size: 12px; font-weight: 500; fill: #6b7280; }
    .node-type { font-size: 12px; font-weight: 700; fill: #9ca3af; letter-spacing: 0.08em; }
    .arrow-label { font-size: 12px; font-weight: 600; fill: #6b7280; }
    .legend { font-size: 12px; font-weight: 500; fill: #6b7280; }
    .footnote { font-size: 12px; font-weight: 500; fill: #94a3b8; }
    </style>
  </defs>
  <rect width="1080.0" height="760.0" fill="#ffffff"/>
  <text x="540.0" y="56" text-anchor="middle" class="title">CodeNook v0.11 — Two-Layer Plugin Architecture</text>
  <text x="540.0" y="82" text-anchor="middle" class="subtitle">codenook-core kernel · per-workspace .codenook/ runtime · router-agent → spawn → tick → extract loop</text>
  <rect x="36.0" y="96.0" width="1008.0" height="88.0" rx="16.0" fill="#f8fafc" stroke="#cbd5e1" stroke-width="1.4" stroke-dasharray="6 5"/>
  <text x="18.0" y="140.0" text-anchor="start" dominant-baseline="middle" font-size="14.0" font-weight="600" fill="#6b7280">User Turn</text>
  <rect x="36.0" y="210.0" width="1008.0" height="248.0" rx="16.0" fill="#f5f7ff" stroke="#a5b4fc" stroke-width="1.4" stroke-dasharray="6 5"/>
  <text x="18.0" y="334.0" text-anchor="start" dominant-baseline="middle" font-size="14.0" font-weight="600" fill="#6b7280">codenook-core (kernel)</text>
  <rect x="36.0" y="484.0" width="1008.0" height="184.0" rx="16.0" fill="#f0fdf4" stroke="#86efac" stroke-width="1.4" stroke-dasharray="6 5"/>
  <text x="18.0" y="576.0" text-anchor="start" dominant-baseline="middle" font-size="14.0" font-weight="600" fill="#6b7280">.codenook/ (per-workspace)</text>
  <path d="M 260.0,144.0 L 380.0,144.0" fill="none" stroke="#7c3aed" stroke-width="2.4" marker-end="url(#arrowA)"/>
  <path d="M 540.0,174.0 L 420.0,174.0 L 420.0,210.0 L 174.0,210.0 L 174.0,240.0" fill="none" stroke="#7c3aed" stroke-width="2.4" marker-end="url(#arrowA)"/>
  <path d="M 284.0,275.0 L 320.0,275.0" fill="none" stroke="#7c3aed" stroke-width="2.4" marker-end="url(#arrowA)"/>
  <path d="M 420.0,310.0 L 420.0,336.0" fill="none" stroke="#7c3aed" stroke-width="2.4" marker-end="url(#arrowA)"/>
  <path d="M 520.0,371.0 L 531.6,371.0 L 531.6,275.0 L 552.0,275.0" fill="none" stroke="#7c3aed" stroke-width="2.4" marker-end="url(#arrowA)"/>
  <path d="M 650.0,310.0 L 650.0,336.0" fill="none" stroke="#ef4444" stroke-width="2.4" marker-end="url(#arrowG)" stroke-dasharray="6,4"/>
  <path d="M 748.0,371.0 L 759.6,371.0 L 759.6,275.0 L 780.0,275.0" fill="none" stroke="#f97316" stroke-width="2.4" marker-end="url(#arrowE)"/>
  <path d="M 174.0,240.0 L 174.0,200.0 L 912.0,200.0 L 912.0,172.0" fill="none" stroke="#2563eb" stroke-width="2.4" marker-end="url(#arrowC)"/>
  <path d="M 174.0,400.0 L 174.0,470.0 L 880.0,470.0 L 880.0,510.0" fill="none" stroke="#2563eb" stroke-width="2.4" marker-end="url(#arrowC)"/>
  <path d="M 420.0,310.0 L 420.0,478.0 L 204.0,478.0 L 204.0,510.0" fill="none" stroke="#2563eb" stroke-width="2.4" marker-end="url(#arrowC)"/>
  <path d="M 420.0,406.0 L 420.0,478.0 L 820.0,478.0 L 820.0,510.0 L 880.0,510.0" fill="none" stroke="#10b981" stroke-width="2.4" marker-end="url(#arrowB)" stroke-dasharray="6,4"/>
  <path d="M 650.0,406.0 L 650.0,478.0 L 540.0,478.0 L 540.0,510.0" fill="none" stroke="#10b981" stroke-width="2.4" marker-end="url(#arrowB)" stroke-dasharray="6,4"/>
  <path d="M 902.0,310.0 L 902.0,478.0 L 600.0,478.0 L 600.0,510.0 L 540.0,510.0" fill="none" stroke="#10b981" stroke-width="2.4" marker-end="url(#arrowB)" stroke-dasharray="6,4"/>
  <path d="M 902.0,336.0 L 902.0,144.0 L 700.0,144.0" fill="none" stroke="#ef4444" stroke-width="2.4" marker-end="url(#arrowG)" stroke-dasharray="6,4"/>
  <rect x="100.0" y="116.0" width="160.0" height="56.0" rx="10.0" fill="#e0e7ff" stroke="#4f46e5" stroke-width="2.0" filter="url(#shadowSoft)"/>
  <circle cx="126.0" cy="144.0" r="18" fill="#dbeafe" stroke="#4f46e5" stroke-width="1.6"/>
  <circle cx="126.0" cy="138.0" r="5" fill="#4f46e5"/>
  <path d="M 116.0 155.0 Q 126.0 146.0 136.0 155.0" fill="none" stroke="#4f46e5" stroke-width="2"/>
  <text x="154.0" y="134.0" text-anchor="middle" class="node-type">TURN</text>
  <text x="164.0" y="160.0" text-anchor="start" class="node-title">User</text>
  <rect x="380.0" y="114.0" width="320.0" height="60.0" rx="10.0" fill="#ede9fe" stroke="#6d28d9" stroke-width="2.0" filter="url(#shadowSoft)"/>
  <rect x="386.0" y="120.0" width="308.0" height="48.0" rx="7.0" fill="none" stroke="#6d28d9" stroke-width="1.2" opacity="0.65"/>
  <text x="540.0" y="132.0" text-anchor="middle" class="node-type">HOST</text>
  <text x="540.0" y="150.0" text-anchor="middle" class="node-title">Main session  (Claude Code · Copilot CLI)</text>
  <rect x="800.0" y="116.0" width="224.0" height="56.0" rx="10.0" fill="#fef3c7" stroke="#d97706" stroke-width="1.8"/>
  <text x="912.0" y="134.0" text-anchor="middle" class="node-type">CONTEXT SLOTS</text>
  <text x="912.0" y="150.0" text-anchor="middle" class="node-title">memory_index  ·  plugin_index</text>
  <rect x="64.0" y="240.0" width="220.0" height="70.0" rx="10.0" fill="#ede9fe" stroke="#6d28d9" stroke-width="2.0" filter="url(#shadowSoft)"/>
  <rect x="70.0" y="246.0" width="208.0" height="58.0" rx="7.0" fill="none" stroke="#6d28d9" stroke-width="1.2" opacity="0.65"/>
  <text x="174.0" y="258.0" text-anchor="middle" class="node-type">PREPARE PROMPT</text>
  <text x="174.0" y="281.0" text-anchor="middle" class="node-title">router-agent</text>
  <rect x="64.0" y="336.0" width="220.0" height="64.0" rx="10.0" fill="#fef3c7" stroke="#d97706" stroke-width="1.8"/>
  <text x="174.0" y="354.0" text-anchor="middle" class="node-type">CHAIN CONTEXT</text>
  <text x="174.0" y="374.0" text-anchor="middle" class="node-title">task_chain  ·  parent_suggester</text>
  <rect x="320.0" y="240.0" width="200.0" height="70.0" rx="10.0" fill="#ffffff" stroke="#6366f1" stroke-width="1.8"/>
  <text x="420.0" y="258.0" text-anchor="middle" class="node-type">MATERIALIZE</text>
  <text x="420.0" y="281.0" text-anchor="middle" class="node-title">spawn</text>
  <rect x="320.0" y="336.0" width="200.0" height="70.0" rx="10.0" fill="#ede9fe" stroke="#6d28d9" stroke-width="2.0" filter="url(#shadowSoft)"/>
  <rect x="326.0" y="342.0" width="188.0" height="58.0" rx="7.0" fill="none" stroke="#6d28d9" stroke-width="1.2" opacity="0.65"/>
  <text x="420.0" y="354.0" text-anchor="middle" class="node-type">STATE MACHINE</text>
  <text x="420.0" y="377.0" text-anchor="middle" class="node-title">orchestrator-tick</text>
  <rect x="552.0" y="240.0" width="196.0" height="70.0" rx="10.0" fill="#ffffff" stroke="#6366f1" stroke-width="1.8"/>
  <text x="650.0" y="258.0" text-anchor="middle" class="node-type">RUN PHASE</text>
  <text x="650.0" y="281.0" text-anchor="middle" class="node-title">dispatch_subagent</text>
  <rect x="552.0" y="336.0" width="196.0" height="70.0" rx="10.0" fill="#ffffff" stroke="#059669" stroke-width="1.8"/>
  <text x="650.0" y="354.0" text-anchor="middle" class="node-type">AFTER PHASE</text>
  <text x="650.0" y="377.0" text-anchor="middle" class="node-title">extractor-batch</text>
  <rect x="780.0" y="240.0" width="244.0" height="70.0" rx="10.0" fill="#ffffff" stroke="#059669" stroke-width="1.8"/>
  <text x="902.0" y="258.0" text-anchor="middle" class="node-type">COMPRESS / ROUTE</text>
  <text x="902.0" y="281.0" text-anchor="middle" class="node-title">distiller  ·  llm_call</text>
  <rect x="780.0" y="336.0" width="244.0" height="70.0" rx="10.0" fill="#fee2e2" stroke="#dc2626" stroke-width="1.8"/>
  <text x="902.0" y="354.0" text-anchor="middle" class="node-type">GATES</text>
  <text x="902.0" y="377.0" text-anchor="middle" class="node-title">claude_md_linter · plugin_readonly · secret_scan</text>
  <path d="M 64.0 528.0 L 85.6 528.0 L 95.32 510.0 L 118.0 510.0 L 344.0 510.0 L 344.0 650.0 L 64.0 650.0 Z" fill="#dcfce7" stroke="#16a34a" stroke-width="2.0" filter="url(#shadowSoft)"/>
  <line x1="86.0" y1="552.0" x2="322.0" y2="552.0" stroke="#16a34a" stroke-opacity="0.35" stroke-width="1.2"/>
  <line x1="86.0" y1="566.0" x2="322.0" y2="566.0" stroke="#16a34a" stroke-opacity="0.35" stroke-width="1.2"/>
  <line x1="86.0" y1="580.0" x2="322.0" y2="580.0" stroke="#16a34a" stroke-opacity="0.35" stroke-width="1.2"/>
  <text x="204.0" y="528.0" text-anchor="middle" class="node-type">READ-ONLY</text>
  <text x="204.0" y="676.0" text-anchor="middle" class="node-title">plugins/development</text>
  <text x="204.0" y="694.0" text-anchor="middle" class="node-sub">8 phases · 8 roles · criteria-*.md</text>
  <ellipse cx="540.0" cy="527.5" rx="70.0" ry="17.5" fill="#dcfce7" stroke="#16a34a" stroke-width="2.2"/>
  <rect x="400.0" y="527.5" width="280.0" height="105.0" fill="#dcfce7" stroke="#16a34a" stroke-width="2.2"/>
  <ellipse cx="540.0" cy="632.5" rx="70.0" ry="17.5" fill="#dcfce7" stroke="#16a34a" stroke-width="2.2"/>
  <ellipse cx="540.0" cy="563.2" rx="70.0" ry="17.5" fill="none" stroke="#16a34a" stroke-opacity="0.45" stroke-width="1.2"/>
  <ellipse cx="540.0" cy="594.0" rx="70.0" ry="17.5" fill="none" stroke="#16a34a" stroke-opacity="0.25" stroke-width="1.2"/>
  <text x="540.0" y="574.0" text-anchor="middle" class="node-title">memory/</text>
  <text x="540.0" y="598.0" text-anchor="middle" class="node-sub">knowledge · skills · config · history</text>
  <path d="M 736.0 528.0 L 757.6 528.0 L 767.32 510.0 L 790.0 510.0 L 1024.0 510.0 L 1024.0 650.0 L 736.0 650.0 Z" fill="#dcfce7" stroke="#16a34a" stroke-width="2.0" filter="url(#shadowSoft)"/>
  <line x1="758.0" y1="552.0" x2="1002.0" y2="552.0" stroke="#16a34a" stroke-opacity="0.35" stroke-width="1.2"/>
  <line x1="758.0" y1="566.0" x2="1002.0" y2="566.0" stroke="#16a34a" stroke-opacity="0.35" stroke-width="1.2"/>
  <line x1="758.0" y1="580.0" x2="1002.0" y2="580.0" stroke="#16a34a" stroke-opacity="0.35" stroke-width="1.2"/>
  <text x="880.0" y="528.0" text-anchor="middle" class="node-type">PER-TASK STATE</text>
  <text x="880.0" y="676.0" text-anchor="middle" class="node-title">tasks/&lt;T-NNN&gt;/</text>
  <text x="880.0" y="694.0" text-anchor="middle" class="node-sub">state.json · prompt artifacts · audit</text>
  <rect x="299.0" y="114.0" width="42" height="20" rx="6" fill="#ffffff" opacity="0.94"/>
  <text x="320.0" y="128.0" text-anchor="middle" class="arrow-label">turn</text>
  <rect x="272.5" y="180.0" width="49" height="20" rx="6" fill="#ffffff" opacity="0.94"/>
  <text x="297.0" y="194.0" text-anchor="middle" class="arrow-label">spawn</text>
  <rect x="270.5" y="261.0" width="63" height="20" rx="6" fill="#ffffff" opacity="0.94"/>
  <text x="302.0" y="275.0" text-anchor="middle" class="arrow-label">confirm</text>
  <rect x="378.0" y="309.0" width="84" height="20" rx="6" fill="#ffffff" opacity="0.94"/>
  <text x="420.0" y="323.0" text-anchor="middle" class="arrow-label">first tick</text>
  <rect x="507.1" y="309.0" width="49" height="20" rx="6" fill="#ffffff" opacity="0.94"/>
  <text x="531.6" y="323.0" text-anchor="middle" class="arrow-label">phase</text>
  <rect x="604.5" y="309.0" width="91" height="20" rx="6" fill="#ffffff" opacity="0.94"/>
  <text x="650.0" y="323.0" text-anchor="middle" class="arrow-label">after_phase</text>
  <rect x="741.6" y="309.0" width="36" height="20" rx="6" fill="#ffffff" opacity="0.94"/>
  <text x="759.6" y="323.0" text-anchor="middle" class="arrow-label">raw</text>
  <rect x="522.0" y="202.0" width="42" height="20" rx="6" fill="#ffffff" opacity="0.94"/>
  <text x="543.0" y="216.0" text-anchor="middle" class="arrow-label">read</text>
  <rect x="488.5" y="440.0" width="77" height="20" rx="6" fill="#ffffff" opacity="0.94"/>
  <text x="527.0" y="454.0" text-anchor="middle" class="arrow-label">ancestors</text>
  <rect x="280.5" y="448.0" width="63" height="20" rx="6" fill="#ffffff" opacity="0.94"/>
  <text x="312.0" y="462.0" text-anchor="middle" class="arrow-label">overlay</text>
  <rect x="578.0" y="448.0" width="84" height="20" rx="6" fill="#ffffff" opacity="0.94"/>
  <text x="620.0" y="462.0" text-anchor="middle" class="arrow-label">state.json</text>
  <rect x="539.0" y="480.0" width="112" height="20" rx="6" fill="#ffffff" opacity="0.94"/>
  <text x="595.0" y="494.0" text-anchor="middle" class="arrow-label">patch / create</text>
  <rect x="719.5" y="448.0" width="63" height="20" rx="6" fill="#ffffff" opacity="0.94"/>
  <text x="751.0" y="462.0" text-anchor="middle" class="arrow-label">promote</text>
  <rect x="748.5" y="130.0" width="105" height="20" rx="6" fill="#ffffff" opacity="0.94"/>
  <text x="801.0" y="144.0" text-anchor="middle" class="arrow-label">block on fail</text>
  <rect x="766.0" y="686.0" width="282" height="134" rx="10" fill="#ffffff" opacity="0.88"/>
  <line x1="776.0" y1="700.0" x2="806.0" y2="700.0" stroke="#7c3aed" stroke-width="2.4" marker-end="url(#arrowA)"/>
  <text x="816.0" y="704.0" class="legend">Control / dispatch</text>
  <line x1="776.0" y1="722.0" x2="806.0" y2="722.0" stroke="#2563eb" stroke-width="2.4" marker-end="url(#arrowC)"/>
  <text x="816.0" y="726.0" class="legend">Read context (overlay / index)</text>
  <line x1="776.0" y1="744.0" x2="806.0" y2="744.0" stroke="#10b981" stroke-width="2.4" marker-end="url(#arrowB)"/>
  <text x="816.0" y="748.0" class="legend">Persist (state, memory)</text>
  <line x1="776.0" y1="766.0" x2="806.0" y2="766.0" stroke="#f97316" stroke-width="2.4" marker-end="url(#arrowE)"/>
  <text x="816.0" y="770.0" class="legend">Raw conversation chunk</text>
  <line x1="776.0" y1="788.0" x2="806.0" y2="788.0" stroke="#ef4444" stroke-width="2.4" marker-end="url(#arrowG)"/>
  <text x="816.0" y="792.0" class="legend">Post-phase / gate signal</text>
  <text x="42.0" y="744.0" class="footnote">v0.11.1 · 851 bats · M1–M11 shipped · skills/codenook-core + plugins/development</text>
</svg>